<svg xmlns="http://www.w3.org/2000/svg" xmlns:xlink="http://www.w3.org/1999/xlink" viewBox="0 0 104.85 20.41"><defs><style>.cls-1{fill:none;}.cls-2{clip-path:url(#clip-path);}.cls-3{clip-path:url(#clip-path-2);}.cls-4{fill:#fff;}</style><clipPath id="clip-path" transform="translate(-0.01)"><path class="cls-1" d="M36.19,5.06l-1.57,6.75L33,5.06H31.36l-1.69,6.75L28.1,5.06H25.77l2.81,10.27h2l1.53-6.15,1.54,6.15h2L38.53,5.06Zm4.55,0V15.34h5.72V13H43v-1.7h3V9H43V7.44h3.38V5.06Zm17,0V7.44h2.13v7.9h2.22V7.44h2.13V5.06ZM72,5.06v6c0,1.37-.58,2-1.57,2s-1.57-.64-1.57-2v-6H66.66v6.28c0,2.82,1.43,4.19,3.81,4.19s3.79-1.37,3.79-4.19V5.06Zm8.58,2.19,1.2,4.27h-2.4ZM79.31,5.06,76,15.34h2.34l.53-1.91h3.45l.53,1.91h2.33L81.93,5.06ZM89.64,7.44h1.27a1.12,1.12,0,0,1,1.25,1.17,1.11,1.11,0,0,1-1.25,1.18H89.64ZM87.42,5.06V15.34h2.22V11.9H91l1.53,3.44h2.37l-1.94-4a3.08,3.08,0,0,0,1.41-2.72,3.26,3.26,0,0,0-3.5-3.55Zm14.88,0-2,4.37-2-4.37H95.91l3.28,6.41v3.87h2.23V11.47l3.27-6.41ZM52.16,4.89A3.06,3.06,0,0,0,49,8c0,1.71.82,2.67,2.64,3.17,1,.29,1.92.41,1.92,1.17s-.57,1-1.33,1a1.51,1.51,0,0,1-1.59-1.22l-2.05.72a3.4,3.4,0,0,0,3.66,2.65,3.26,3.26,0,0,0,3.56-3.2c0-1.6-.65-2.4-2.87-3.1C52.19,9,51.11,8.82,51.11,8a1,1,0,0,1,1.08-1,1.24,1.24,0,0,1,1.29,1l2.05-.58a3.17,3.17,0,0,0-3.12-2.56Z"/></clipPath><clipPath id="clip-path-2" transform="translate(-0.01)"><rect class="cls-1" x="25.77" y="4.89" width="78.96" height="10.8"/></clipPath></defs><g id="Layer_2" data-name="Layer 2"><g id="Layer_1-2" data-name="Layer 1"><g class="cls-2"><g class="cls-3"><rect class="cls-4" x="25.85" y="4.92" width="79" height="11"/></g></g><path class="cls-4" d="M10.21,0A10.21,10.21,0,1,0,20.42,10.21,10.2,10.2,0,0,0,10.21,0Zm2.3,17a7.17,7.17,0,0,1-4.07.25.3.3,0,0,1-.24-.34,7.28,7.28,0,0,1,1.64-3.73.31.31,0,0,1,.55.18,3.77,3.77,0,0,0,2.13,3.07.3.3,0,0,1,.19.29A.32.32,0,0,1,12.51,17Zm4.21-3.66a7.19,7.19,0,0,1-1.83,2.37.32.32,0,0,1-.25.07.34.34,0,0,1-.22-.15L10.48,9a.32.32,0,0,0-.27-.16A.32.32,0,0,0,9.93,9L6,15.63a.3.3,0,0,1-.22.15.32.32,0,0,1-.25-.07A7.23,7.23,0,0,1,4.1,6.34c0-.07.09-.14.14-.21A.32.32,0,0,1,4.51,6a.31.31,0,0,1,.26.16c.36.59,1,1.69,1.37,2.31a.35.35,0,0,0,.28.15.32.32,0,0,0,.27-.15L9.81,3.2a.45.45,0,0,1,.4-.22.44.44,0,0,1,.39.22l3.12,5.26a.33.33,0,0,0,.27.15.33.33,0,0,0,.28-.15l1.37-2.31A.31.31,0,0,1,15.9,6a.34.34,0,0,1,.28.14l.12.18s0,0,0,0a7.18,7.18,0,0,1,.41,7Z" transform="translate(-0.01)"/></g></g></svg>
